<svg width="28" height="28" viewBox="0 0 28 28" fill="none" xmlns="http://www.w3.org/2000/svg">
<path d="M13.701 6.5529V9.08598C12.9212 8.88037 12.2788 8.54318 12.2949 7.74131C12.3152 6.8243 13.196 6.60224 13.701 6.54879V6.5529ZM14.3071 9.86729V12.3963C14.8081 12.3428 15.6808 12.129 15.7374 11.2695C15.7939 10.4142 15.0788 10.077 14.3071 9.86729ZM20.3677 9.47664C20.3677 13.046 17.5111 15.9533 14.004 15.9533C10.497 15.9533 7.6404 13.046 7.6404 9.47664C7.6404 5.90729 10.497 3 14.004 3C17.5111 3 20.3677 5.90729 20.3677 9.47664ZM16.3434 11.3107C16.4364 9.85906 15.0747 9.41907 14.3071 9.22991V6.5529C14.7273 6.59402 15.204 6.73794 15.7131 7.21084C15.8384 7.32598 16.0283 7.31364 16.1414 7.19028C16.2545 7.0628 16.2424 6.86953 16.1212 6.75439C15.4586 6.14579 14.8283 5.9772 14.3071 5.93607V5.25757C14.3071 5.08897 14.1697 4.94916 14.004 4.94916C13.8384 4.94916 13.701 5.08897 13.701 5.25757V5.93607C12.8566 6.01421 11.7172 6.45421 11.6889 7.72897C11.6566 9.12299 12.9737 9.55065 13.701 9.72336V12.4004C13.2081 12.3675 12.6384 12.2236 12.0121 11.726C11.8788 11.6191 11.6889 11.6437 11.5879 11.7794C11.4869 11.9151 11.5071 12.1084 11.6404 12.2112C12.4121 12.8239 13.1232 12.9843 13.7051 13.0172V13.6916C13.7051 13.8602 13.8424 14 14.0081 14C14.1737 14 14.3111 13.8602 14.3111 13.6916V13.0131C15.2606 12.9308 16.2707 12.4538 16.3475 11.3065L16.3434 11.3107ZM22.8929 22.3271H16.0242C15.8586 22.3271 15.7212 22.4669 15.7212 22.6355V24.6916C15.7212 24.8602 15.8586 25 16.0242 25H22.8929C23.0586 25 23.196 24.8602 23.196 24.6916V22.6355C23.196 22.4669 23.0586 22.3271 22.8929 22.3271ZM19.2566 16.0561L22.6909 11.2243C22.3434 11.2243 22.004 11.3682 21.7616 11.615C21.5152 11.8658 21.3778 12.203 21.3778 12.5607V14.0699C21.7859 14.1645 22.1535 14.3783 22.4242 14.7073C22.7515 15.1062 22.9091 15.6161 22.8606 16.1342C22.8121 16.6523 22.5737 17.1252 22.1778 17.4583L19.8384 19.4404C19.7818 19.4897 19.7131 19.5103 19.6444 19.5103C19.5596 19.5103 19.4707 19.4733 19.4101 19.3993C19.301 19.2677 19.3212 19.0744 19.4505 18.9634L21.7899 16.9813C22.0606 16.751 22.2263 16.4303 22.2586 16.0766C22.2909 15.723 22.1859 15.3735 21.9596 15.0979C21.7899 14.8923 21.5717 14.7525 21.3253 14.6826C20.9172 14.5593 20.4566 14.6374 20.1091 14.9293L17.802 16.8867C16.9939 17.5693 16.5293 18.5768 16.5293 19.6501V21.7103H22.3879V20.7686C22.3879 20.1847 22.5859 19.6131 22.9374 19.1607L23.3172 18.6837C23.7576 18.1204 24 17.4131 24 16.6893V12.5607C24 11.8247 23.4101 11.2243 22.6869 11.2243L19.2566 16.0561ZM4.81212 22.6355V24.6916C4.81212 24.8602 4.9495 25 5.11515 25H11.9838C12.1495 25 12.2869 24.8602 12.2869 24.6916V22.6355C12.2869 22.4669 12.1495 22.3271 11.9838 22.3271H5.11515C4.9495 22.3271 4.81212 22.4669 4.81212 22.6355ZM4.00404 12.5607V16.6893C4.00404 17.4131 4.24646 18.1204 4.68687 18.6837L5.06667 19.1607C5.42222 19.6131 5.61616 20.1847 5.61616 20.7686V21.7103H11.4747V19.6501C11.4747 18.5768 11.0101 17.5735 10.202 16.8867L7.89495 14.9293C7.54747 14.6374 7.09091 14.5593 6.67879 14.6826C6.43232 14.7566 6.2101 14.8964 6.04444 15.0979C5.81818 15.3735 5.71313 15.7189 5.74545 16.0725C5.77778 16.4262 5.94343 16.751 6.21414 16.9772L8.55354 18.9593C8.68283 19.0703 8.69899 19.2636 8.59394 19.3951C8.53333 19.4692 8.44849 19.5062 8.3596 19.5062C8.29091 19.5062 8.22222 19.4815 8.16566 19.4363L5.82626 17.4542C5.43434 17.1211 5.19192 16.6482 5.14343 16.1301C5.09899 15.612 5.25253 15.1021 5.5798 14.7032C5.8505 14.3701 6.21818 14.1563 6.62626 14.0658V12.5566C6.62626 12.1989 6.48889 11.8617 6.24242 11.6108C6 11.3641 5.66061 11.2202 5.31313 11.2202C4.5899 11.2202 4 11.8206 4 12.5566L4.00404 12.5607Z" fill="#04BDD2"/>
</svg>
