<svg width="18" height="22" viewBox="0 0 18 22" fill="none" xmlns="http://www.w3.org/2000/svg">
<path d="M0.802069 19.1738H16.989C17.3201 19.1738 17.5909 18.903 17.5909 18.5719V1.48174C17.5909 1.15067 17.3201 0.879883 16.989 0.879883H0.802069C0.470993 0.879883 0.200207 1.15067 0.200207 1.48174L0.199219 18.5719C0.199219 18.903 0.470005 19.1738 0.801081 19.1738H0.802069ZM0.87026 2.60552C0.87026 2.10942 1.27547 1.70521 1.77059 1.70521H16.0196C16.5157 1.70521 16.9199 2.11041 16.9199 2.60552V5.75508C16.9199 6.25118 16.5147 6.6554 16.0196 6.6554H1.77059C1.27448 6.6554 0.87026 6.2502 0.87026 5.75508V2.60552ZM0.87026 8.45203C0.87026 7.95593 1.27547 7.55171 1.77059 7.55171H16.0196C16.5157 7.55171 16.9199 7.95691 16.9199 8.45203V11.6016C16.9199 12.0977 16.5147 12.5019 16.0196 12.5019L1.77059 12.5029C1.27448 12.5029 0.87026 12.0977 0.87026 11.6026V8.45203ZM0.87026 14.2985C0.87026 13.8024 1.27547 13.3982 1.77059 13.3982H16.0196C16.5157 13.3982 16.9199 13.8034 16.9199 14.2985V17.4481C16.9199 17.9442 16.5147 18.3484 16.0196 18.3484L1.77059 18.3494C1.27448 18.3494 0.87026 17.9442 0.87026 17.4491V14.2985Z" fill="#04BDD2"/>
<path d="M1.77084 6.02913H16.0198C16.172 6.02913 16.2955 5.90559 16.2955 5.75341V2.60385C16.2955 2.45166 16.172 2.32814 16.0198 2.32814L1.77084 2.32715C1.61864 2.32715 1.49512 2.45068 1.49512 2.60286V5.75242C1.49512 5.90461 1.61865 6.02814 1.77084 6.02814V6.02913ZM14.5198 3.51398C14.5198 3.34202 14.6591 3.2007 14.8331 3.2007C15.008 3.2007 15.1463 3.34004 15.1463 3.51398V4.84518C15.1463 5.01714 15.007 5.15846 14.8331 5.15846C14.6581 5.15846 14.5198 5.01912 14.5198 4.84518V3.51398ZM12.9642 3.51398C12.9642 3.34202 13.1036 3.2007 13.2775 3.2007C13.4524 3.2007 13.5908 3.34004 13.5908 3.51398V4.84518C13.5908 5.01714 13.4515 5.15846 13.2775 5.15846C13.1026 5.15846 12.9642 5.01912 12.9642 4.84518V3.51398ZM11.4087 3.51398C11.4087 3.34202 11.548 3.2007 11.722 3.2007C11.8969 3.2007 12.0353 3.34004 12.0353 3.51398V4.84518C12.0353 5.01714 11.8959 5.15846 11.722 5.15846C11.547 5.15846 11.4087 5.01912 11.4087 4.84518V3.51398ZM6.71527 3.01588C7.35766 3.01588 7.87947 3.5367 7.87947 4.18007C7.87947 4.82246 7.35865 5.34426 6.71527 5.34426C6.07288 5.34426 5.55106 4.82344 5.55106 4.18007C5.55106 3.53769 6.07189 3.01588 6.71527 3.01588ZM3.8088 3.01588C4.4512 3.01588 4.97301 3.5367 4.97301 4.18007C4.97301 4.82246 4.45218 5.34426 3.8088 5.34426C3.16641 5.34426 2.6446 4.82344 2.6446 4.18007C2.6446 3.53769 3.16542 3.01588 3.8088 3.01588Z" fill="#04BDD2"/>
<path d="M3.80814 4.71881C4.10463 4.71881 4.34676 4.47866 4.34676 4.18021C4.34676 3.88175 4.1066 3.6416 3.80814 3.6416C3.50968 3.6416 3.26953 3.88175 3.26953 4.18021C3.26953 4.47867 3.50968 4.71881 3.80814 4.71881Z" fill="#04BDD2"/>
<path d="M6.71439 4.71881C7.01088 4.71881 7.25301 4.47866 7.25301 4.18021C7.25301 3.88175 7.01285 3.6416 6.71439 3.6416C6.41593 3.6416 6.17578 3.88175 6.17578 4.18021C6.17578 4.47867 6.41593 4.71881 6.71439 4.71881Z" fill="#04BDD2"/>
<path d="M1.77104 11.8778H16.02C16.1722 11.8778 16.2957 11.7543 16.2957 11.6021V8.45256C16.2957 8.30037 16.1722 8.17685 16.02 8.17685H1.77104C1.61884 8.17685 1.49532 8.30038 1.49532 8.45256V11.6021C1.49532 11.7543 1.61885 11.8778 1.77104 11.8778ZM14.52 9.3627C14.52 9.19074 14.6593 9.04941 14.8333 9.04941C15.0082 9.04941 15.1465 9.18876 15.1465 9.3627V10.6939C15.1465 10.8658 15.0072 11.0072 14.8333 11.0072C14.6583 11.0072 14.52 10.8678 14.52 10.6939V9.3627ZM12.9644 9.3627C12.9644 9.19074 13.1038 9.04941 13.2777 9.04941C13.4526 9.04941 13.591 9.18876 13.591 9.3627V10.6939C13.591 10.8658 13.4517 11.0072 13.2777 11.0072C13.1028 11.0072 12.9644 10.8678 12.9644 10.6939V9.3627ZM11.4089 9.3627C11.4089 9.19074 11.5482 9.04941 11.7222 9.04941C11.8971 9.04941 12.0355 9.18876 12.0355 9.3627V10.6939C12.0355 10.8658 11.8961 11.0072 11.7222 11.0072C11.5472 11.0072 11.4089 10.8678 11.4089 10.6939V9.3627ZM6.71547 8.8646C7.35786 8.8646 7.87967 9.38541 7.87967 10.0288C7.87967 10.6712 7.35885 11.193 6.71547 11.193C6.07308 11.193 5.55126 10.6722 5.55126 10.0288C5.55126 9.3864 6.07209 8.8646 6.71547 8.8646ZM3.809 8.8646C4.45139 8.8646 4.97321 9.38541 4.97321 10.0288C4.97321 10.6712 4.45238 11.193 3.809 11.193C3.16661 11.193 2.6448 10.6722 2.6448 10.0288C2.6448 9.3864 3.16562 8.8646 3.809 8.8646Z" fill="#04BDD2"/>
<path d="M3.80814 10.5655C4.10463 10.5655 4.34676 10.3253 4.34676 10.0269C4.34676 9.72843 4.1066 9.48828 3.80814 9.48828C3.50968 9.48828 3.26953 9.72843 3.26953 10.0269C3.26953 10.3253 3.50968 10.5655 3.80814 10.5655Z" fill="#04BDD2"/>
<path d="M6.71439 10.5655C7.01088 10.5655 7.25301 10.3253 7.25301 10.0269C7.25301 9.72843 7.01285 9.48828 6.71439 9.48828C6.41593 9.48828 6.17578 9.72843 6.17578 10.0269C6.17578 10.3253 6.41593 10.5655 6.71439 10.5655Z" fill="#04BDD2"/>
<path d="M1.77084 17.7244H16.0198C16.172 17.7244 16.2955 17.6009 16.2955 17.4487V14.2992C16.2955 14.147 16.172 14.0234 16.0198 14.0234H1.77084C1.61864 14.0234 1.49512 14.147 1.49512 14.2992V17.4487C1.49512 17.6009 1.61865 17.7244 1.77084 17.7244ZM14.5198 15.2093C14.5198 15.0373 14.6591 14.896 14.8331 14.896C15.008 14.896 15.1463 15.0353 15.1463 15.2093V16.5405C15.1463 16.7124 15.007 16.8538 14.8331 16.8538C14.6581 16.8538 14.5198 16.7144 14.5198 16.5405V15.2093ZM12.9642 15.2093C12.9642 15.0373 13.1036 14.896 13.2775 14.896C13.4524 14.896 13.5908 15.0353 13.5908 15.2093V16.5405C13.5908 16.7124 13.4515 16.8538 13.2775 16.8538C13.1026 16.8538 12.9642 16.7144 12.9642 16.5405V15.2093ZM11.4087 15.2093C11.4087 15.0373 11.548 14.896 11.722 14.896C11.8969 14.896 12.0353 15.0353 12.0353 15.2093V16.5405C12.0353 16.7124 11.8959 16.8538 11.722 16.8538C11.547 16.8538 11.4087 16.7144 11.4087 16.5405V15.2093ZM6.71527 14.7112C7.35766 14.7112 7.87947 15.232 7.87947 15.8754C7.87947 16.5178 7.35865 17.0396 6.71527 17.0396C6.07288 17.0396 5.55106 16.5187 5.55106 15.8754C5.55106 15.233 6.07189 14.7112 6.71527 14.7112ZM3.8088 14.7112C4.4512 14.7112 4.97301 15.232 4.97301 15.8754C4.97301 16.5178 4.45218 17.0396 3.8088 17.0396C3.16641 17.0396 2.6446 16.5187 2.6446 15.8754C2.6446 15.233 3.16542 14.7112 3.8088 14.7112Z" fill="#04BDD2"/>
<path d="M3.80814 16.4122C4.10463 16.4122 4.34676 16.172 4.34676 15.8736C4.34676 15.5751 4.1066 15.335 3.80814 15.335C3.50968 15.335 3.26953 15.5751 3.26953 15.8736C3.26953 16.172 3.50968 16.4122 3.80814 16.4122Z" fill="#04BDD2"/>
<path d="M6.71439 16.4122C7.01088 16.4122 7.25301 16.172 7.25301 15.8736C7.25301 15.5751 7.01285 15.335 6.71439 15.335C6.41593 15.335 6.17578 15.5751 6.17578 15.8736C6.17578 16.172 6.41593 16.4122 6.71439 16.4122Z" fill="#04BDD2"/>
<path d="M1.96875 20.8296C1.96875 20.9887 2.10019 21.1201 2.2593 21.1201H4.99676C5.15587 21.1201 5.2873 20.9887 5.2873 20.8296V19.7998H1.97072V20.8296H1.96875Z" fill="#04BDD2"/>
<path d="M15.8225 19.7997H12.506V20.8295C12.506 20.9886 12.6374 21.12 12.7965 21.12H15.5312C15.6903 21.12 15.8217 20.9886 15.8217 20.8295V19.7997H15.8225Z" fill="#04BDD2"/>
</svg>
