<svg width="12" height="20" viewBox="0 0 12 20" fill="none" xmlns="http://www.w3.org/2000/svg">
<path d="M0.366525 11.4282H5.29385C5.34647 11.4282 5.39843 11.4401 5.44592 11.463C5.49341 11.486 5.53524 11.5193 5.56833 11.5607C5.60143 11.6021 5.62496 11.6505 5.6372 11.7022C5.64944 11.754 5.65009 11.8079 5.63909 11.86L3.93511 19.9095C3.93243 19.9175 3.93136 19.926 3.93197 19.9345C3.93259 19.9429 3.93487 19.9512 3.93869 19.9587C3.9425 19.9663 3.94778 19.973 3.9542 19.9785C3.96061 19.9839 3.96805 19.988 3.97606 19.9905C3.98315 19.995 3.99108 19.998 3.99936 19.9993C4.00763 20.0006 4.01608 20.0001 4.02418 19.998C4.03228 19.9958 4.03986 19.992 4.04646 19.9868C4.05305 19.9816 4.05853 19.9751 4.06255 19.9677L11.928 9.16264C11.9684 9.10745 11.9929 9.04198 11.9987 8.97354C12.0045 8.9051 11.9913 8.83638 11.9608 8.77504C11.9302 8.71371 11.8834 8.66217 11.8255 8.62618C11.7677 8.5902 11.7011 8.57118 11.6332 8.57125H6.70589C6.65323 8.57126 6.60123 8.55936 6.55371 8.53641C6.50619 8.51346 6.46434 8.48005 6.43124 8.43861C6.39814 8.39718 6.37462 8.34878 6.3624 8.29696C6.35019 8.24514 6.34959 8.19122 6.36065 8.13913L8.06463 0.0896372C8.06731 0.0815991 8.06838 0.0730987 8.06777 0.0646372C8.06715 0.0561757 8.06487 0.0479243 8.06105 0.0403693C8.05723 0.0328142 8.05196 0.0261085 8.04554 0.0206473C8.03913 0.0151861 8.03169 0.01108 8.02368 0.00857091C8.01266 0.00316712 8.00062 0.000243016 7.98838 0C7.97789 0.000521842 7.96769 0.00366542 7.9587 0.00914963C7.9497 0.0146338 7.94219 0.0222877 7.93684 0.0314266L0.0717606 10.8372C0.031435 10.8924 0.00704654 10.9578 0.00131172 11.0262C-0.00442311 11.0946 0.00872106 11.1632 0.0392799 11.2245C0.0698388 11.2858 0.116613 11.3373 0.174391 11.3732C0.232169 11.4092 0.298683 11.4282 0.366525 11.4282Z" fill="#04BDD2"/>
</svg>
