<svg width="22" height="22" viewBox="0 0 22 22" fill="none" xmlns="http://www.w3.org/2000/svg">
<path d="M11 1C9.02219 1 7.08879 1.58649 5.4443 2.6853C3.79981 3.78412 2.51809 5.3459 1.76121 7.17317C1.00433 9.00043 0.806299 11.0111 1.19215 12.9509C1.578 14.8907 2.53041 16.6725 3.92894 18.0711C5.32746 19.4696 7.10929 20.422 9.0491 20.8079C10.9889 21.1937 12.9996 20.9957 14.8268 20.2388C16.6541 19.4819 18.2159 18.2002 19.3147 16.5557C20.4135 14.9112 21 12.9778 21 11C21 9.68678 20.7413 8.38642 20.2388 7.17317C19.7363 5.95991 18.9997 4.85752 18.0711 3.92893C17.1425 3.00035 16.0401 2.26375 14.8268 1.7612C13.6136 1.25866 12.3132 1 11 1ZM16.676 9.237L10.676 14.737C10.486 14.9112 10.2362 15.0053 9.97848 14.9997C9.7208 14.9941 9.47524 14.8893 9.293 14.707L6.293 11.707C6.19749 11.6148 6.12131 11.5044 6.0689 11.3824C6.01649 11.2604 5.98891 11.1292 5.98775 10.9964C5.9866 10.8636 6.0119 10.7319 6.06218 10.609C6.11246 10.4861 6.18672 10.3745 6.28061 10.2806C6.3745 10.1867 6.48615 10.1125 6.60905 10.0622C6.73195 10.0119 6.86363 9.9866 6.99641 9.98775C7.12918 9.9889 7.2604 10.0165 7.38241 10.0689C7.50441 10.1213 7.61476 10.1975 7.707 10.293L10.03 12.616L15.324 7.763C15.5195 7.58371 15.7781 7.48942 16.0431 7.50086C16.3081 7.5123 16.5577 7.62854 16.737 7.824C16.9163 8.01946 17.0106 8.27814 16.9991 8.54313C16.9877 8.80812 16.8715 9.05771 16.676 9.237Z" fill="#04BDD2"/>
</svg>
