<svg width="28" height="28" viewBox="0 0 28 28" fill="none" xmlns="http://www.w3.org/2000/svg">
<path d="M26.839 23.1748L15.5889 3.57859C15.4709 3.40095 15.3095 3.255 15.1193 3.15396C14.9292 3.05292 14.7163 3 14.5 3C14.2837 3 14.0708 3.05292 13.8807 3.15396C13.6905 3.255 13.5291 3.40095 13.4111 3.57859L2.16098 23.1748C2.05381 23.3611 1.99832 23.5717 2.00004 23.7855C2.00175 23.9993 2.06061 24.209 2.17075 24.3936C2.28089 24.5782 2.43847 24.7314 2.6278 24.8378C2.81713 24.9442 3.0316 25.0001 3.24986 25H25.7501C25.9684 25.0001 26.1829 24.9442 26.3722 24.8378C26.5615 24.7314 26.7191 24.5782 26.8292 24.3936C26.9394 24.209 26.9982 23.9993 27 23.7855C27.0017 23.5717 26.9462 23.3611 26.839 23.1748ZM14.5 21.3257C14.2528 21.3257 14.0111 21.2539 13.8055 21.1193C13.6 20.9847 13.4397 20.7934 13.3451 20.5696C13.2505 20.3458 13.2258 20.0996 13.274 19.862C13.3222 19.6244 13.4413 19.4062 13.6161 19.2349C13.7909 19.0636 14.0137 18.947 14.2561 18.8997C14.4986 18.8525 14.7499 18.8767 14.9784 18.9694C15.2068 19.0621 15.402 19.2191 15.5393 19.4205C15.6767 19.6219 15.75 19.8587 15.75 20.1009C15.75 20.4258 15.6183 20.7373 15.3839 20.967C15.1495 21.1967 14.8315 21.3257 14.5 21.3257ZM15.75 16.4266C15.75 16.7515 15.6183 17.063 15.3839 17.2927C15.1495 17.5224 14.8315 17.6514 14.5 17.6514C14.1685 17.6514 13.8505 17.5224 13.6161 17.2927C13.3817 17.063 13.25 16.7515 13.25 16.4266V11.5276C13.25 11.2028 13.3817 10.8912 13.6161 10.6616C13.8505 10.4319 14.1685 10.3028 14.5 10.3028C14.8315 10.3028 15.1495 10.4319 15.3839 10.6616C15.6183 10.8912 15.75 11.2028 15.75 11.5276V16.4266Z" fill="#04BDD2"/>
</svg>
